<svg xmlns="http://www.w3.org/2000/svg" width="41.659" height="41.659" viewBox="0 0 41.659 41.659">
  <g id="fb" transform="translate(0.5 0.5)">
    <g id="Group_37" data-name="Group 37">
      <path id="Path_637" data-name="Path 637" d="M35.577,0H5.082A5.088,5.088,0,0,0,0,5.082V35.577a5.088,5.088,0,0,0,5.082,5.082H20.33V26.683H15.247V20.33H20.33V15.247a7.623,7.623,0,0,1,7.624-7.624h5.082v6.353H30.495c-1.4,0-2.541-.132-2.541,1.271V20.33h6.353l-2.541,6.353H27.953V40.659h7.624a5.088,5.088,0,0,0,5.082-5.082V5.082A5.088,5.088,0,0,0,35.577,0Z" fill="#fff" stroke="#0cf" stroke-width="1"/>
    </g>
  </g>
</svg>
