<svg xmlns="http://www.w3.org/2000/svg" width="78.221" height="78.221" viewBox="0 0 78.221 78.221">
  <g id="insta" transform="translate(0.698 0.698)">
    <path id="Path_639" data-name="Path 639" d="M217.936,214.468A3.468,3.468,0,1,1,214.468,211,3.468,3.468,0,0,1,217.936,214.468Zm0,0" transform="translate(-176.056 -176.056)" fill="#0cf" stroke="#fff" stroke-width="1"/>
    <path id="Path_640" data-name="Path 640" d="M141.745,120h-15.59A6.161,6.161,0,0,0,120,126.154v15.59a6.161,6.161,0,0,0,6.154,6.154h15.59a6.161,6.161,0,0,0,6.154-6.154v-15.59A6.161,6.161,0,0,0,141.745,120Zm-7.8,21.642a7.693,7.693,0,1,1,7.693-7.693A7.7,7.7,0,0,1,133.949,141.642Zm8.821-14.975a1.539,1.539,0,1,1,1.539-1.539A1.538,1.538,0,0,1,142.77,126.667Zm0,0" transform="matrix(0.809, 0.588, -0.588, 0.809, 8.778, -148.689)" fill="#0cf" stroke="#fff" stroke-width="1"/>
    <path id="Path_641" data-name="Path 641" d="M40.5,0h-26A14.519,14.519,0,0,0,0,14.5v26A14.519,14.519,0,0,0,14.5,55h26A14.519,14.519,0,0,0,55,40.5v-26A14.519,14.519,0,0,0,40.5,0Zm4.834,35.664a9.679,9.679,0,0,1-9.668,9.668H19.336a9.679,9.679,0,0,1-9.668-9.668V19.336a9.679,9.679,0,0,1,9.668-9.668H35.664a9.679,9.679,0,0,1,9.668,9.668Zm0,0" transform="matrix(0.809, 0.588, -0.588, 0.809, 32.328, 0)" fill="#0cf" stroke="#fff" stroke-width="1"/>
  </g>
</svg>
