<svg xmlns="http://www.w3.org/2000/svg" width="78.221" height="78.221" viewBox="0 0 78.221 78.221">
  <g id="telegram" transform="translate(0.698 0.698)">
    <path id="Exclusion_1" data-name="Exclusion 1" d="M44.688,55H10.313a9.973,9.973,0,0,1-7.287-3.026A9.976,9.976,0,0,1,0,44.687V10.313A9.977,9.977,0,0,1,3.026,3.025,9.975,9.975,0,0,1,10.313,0H44.688a9.972,9.972,0,0,1,7.286,3.025A9.979,9.979,0,0,1,55,10.313V44.687A10.331,10.331,0,0,1,44.688,55ZM28.6,36.24h0l8.541,6.254a2.9,2.9,0,0,0,1.373.427c.858,0,1.436-.628,1.719-1.868l5.606-26.269a2.681,2.681,0,0,0-.3-2.277,1.5,1.5,0,0,0-1.209-.543,2.449,2.449,0,0,0-.853.165L10.524,24.746c-1.115.433-1.743,1-1.724,1.55.016.468.505.886,1.342,1.145l8.425,2.621L38.136,17.817a1.761,1.761,0,0,1,.917-.322c.2,0,.35.067.393.18.049.129-.036.3-.24.479L23.376,32.367l-.615,8.643a2.157,2.157,0,0,0,1.717-.831L28.6,36.241Z" transform="matrix(0.809, 0.588, -0.588, 0.809, 32.328, 0)" fill="#0cf" stroke="#fff" stroke-width="1"/>
  </g>
</svg>
