<svg xmlns="http://www.w3.org/2000/svg" width="78.221" height="78.221" viewBox="0 0 78.221 78.221">
  <g id="twitter" transform="translate(0.698 0.698)">
    <path id="Path_638" data-name="Path 638" d="M51.978,3.025A9.931,9.931,0,0,0,44.691,0H10.316A9.935,9.935,0,0,0,3.028,3.025,9.934,9.934,0,0,0,0,10.312V44.687a9.935,9.935,0,0,0,3.025,7.287A9.934,9.934,0,0,0,10.316,55H44.691A10.331,10.331,0,0,0,55,44.687V10.312A9.935,9.935,0,0,0,51.978,3.025Zm-9.9,18.137a9.494,9.494,0,0,1,.036.967A21.667,21.667,0,0,1,38.55,33.963a22.569,22.569,0,0,1-4.314,4.906,19.366,19.366,0,0,1-6.016,3.4A21.893,21.893,0,0,1,20.7,43.542a21.1,21.1,0,0,1-11.53-3.366,14.511,14.511,0,0,0,1.79.107,14.856,14.856,0,0,0,9.346-3.223,7.135,7.135,0,0,1-4.351-1.5,7.642,7.642,0,0,1-2.668-3.724,10.083,10.083,0,0,0,1.4.143,7,7,0,0,0,1.826-.286,7.522,7.522,0,0,1-4.4-2.6,7.15,7.15,0,0,1-1.791-4.78v-.072a8.879,8.879,0,0,0,3.581.931,7.092,7.092,0,0,1-3.259-6.266,7.447,7.447,0,0,1,1.038-3.8,21.314,21.314,0,0,0,6.875,5.55,21.289,21.289,0,0,0,8.665,2.327,6.911,6.911,0,0,1-.179-1.719,7.519,7.519,0,0,1,7.519-7.52,7.147,7.147,0,0,1,5.479,2.364,14.958,14.958,0,0,0,4.8-1.826,7.312,7.312,0,0,1-3.33,4.189,15.94,15.94,0,0,0,4.332-1.218A14.624,14.624,0,0,1,42.077,21.162Z" transform="matrix(0.809, 0.588, -0.588, 0.809, 32.326, -0.002)" fill="#0cf" stroke="#fff" stroke-width="1"/>
  </g>
</svg>
