<svg xmlns="http://www.w3.org/2000/svg" width="78.221" height="78.221" viewBox="0 0 78.221 78.221">
  <g id="fb" transform="translate(0.698 0.698)">
    <g id="Group_37" data-name="Group 37" transform="matrix(0.809, 0.588, -0.588, 0.809, 32.328, 0)">
      <path id="Path_637" data-name="Path 637" d="M48.125,0H6.875A6.882,6.882,0,0,0,0,6.875v41.25A6.882,6.882,0,0,0,6.875,55H27.5V36.094H20.625V27.5H27.5V20.625A10.312,10.312,0,0,1,37.813,10.313h6.875v8.594H41.25c-1.9,0-3.437-.179-3.437,1.719V27.5h8.594l-3.437,8.594H37.813V55H48.125A6.882,6.882,0,0,0,55,48.125V6.875A6.882,6.882,0,0,0,48.125,0Z" fill="#0cf" stroke="#fff" stroke-width="1"/>
    </g>
  </g>
</svg>
