<svg xmlns="http://www.w3.org/2000/svg" width="77.78" height="77.552" viewBox="0 0 77.78 77.552">
  <g id="linkedin" transform="translate(0.48 0.366)">
    <path id="Path_777" data-name="Path 777" d="M56.013,6.645,12.94,7.918A5.751,5.751,0,0,0,7.4,13.357L6.124,55.6a4.979,4.979,0,0,0,5.225,5.122l43.073-1.272a5.751,5.751,0,0,0,5.543-5.44l1.272-42.246A4.979,4.979,0,0,0,56.013,6.645ZM22.356,52.486l-8.076.239L15,28.961l8.076-.239ZM19.169,24.353a4.451,4.451,0,0,1-4.7-4.61,5.138,5.138,0,0,1,4.989-4.9,4.451,4.451,0,0,1,4.7,4.61A5.138,5.138,0,0,1,19.169,24.353Zm32.8,27.258-8.076.239.421-13.994A3.814,3.814,0,0,0,40.4,34.015a4.414,4.414,0,0,0-4.157,4.08l-.421,13.994-8.076.239.716-23.764,8.076-.239-.1,3.168a9.378,9.378,0,0,1,6.842-3.9,8.791,8.791,0,0,1,9.144,8.963Z" transform="matrix(0.809, 0.588, -0.588, 0.809, 30.961, -8.639)" fill="#3fd8ff" stroke="#fff" stroke-width="1"/>
  </g>
</svg>
