<svg xmlns="http://www.w3.org/2000/svg" width="41.659" height="41.659" viewBox="0 0 41.659 41.659">
  <g id="insta" transform="translate(0.5 0.5)">
    <path id="Path_639" data-name="Path 639" d="M219.264,215.132A4.132,4.132,0,1,1,215.132,211,4.132,4.132,0,0,1,219.264,215.132Zm0,0" transform="translate(-194.803 -194.803)" fill="#fff" stroke="#0cf" stroke-width="1"/>
    <path id="Path_640" data-name="Path 640" d="M134.513,120H124.108A4.112,4.112,0,0,0,120,124.108v10.406a4.112,4.112,0,0,0,4.108,4.108h10.406a4.112,4.112,0,0,0,4.108-4.108V124.108A4.112,4.112,0,0,0,134.513,120Zm-5.2,14.445a5.134,5.134,0,1,1,5.134-5.134A5.14,5.14,0,0,1,129.31,134.445Zm5.887-10a1.027,1.027,0,1,1,1.027-1.027A1.027,1.027,0,0,1,135.2,124.45Zm0,0" transform="translate(-108.981 -108.981)" fill="#fff" stroke="#0cf" stroke-width="1"/>
    <path id="Path_641" data-name="Path 641" d="M29.939,0H10.721A10.733,10.733,0,0,0,0,10.721V29.939A10.733,10.733,0,0,0,10.721,40.659H29.939A10.733,10.733,0,0,0,40.659,29.939V10.721A10.733,10.733,0,0,0,29.939,0Zm3.574,26.365a7.155,7.155,0,0,1-7.147,7.147H14.294a7.155,7.155,0,0,1-7.147-7.147V14.294a7.155,7.155,0,0,1,7.147-7.147H26.365a7.155,7.155,0,0,1,7.147,7.147Zm0,0" fill="#fff" stroke="#0cf" stroke-width="1"/>
  </g>
</svg>
