<svg xmlns="http://www.w3.org/2000/svg" width="41.659" height="41.659" viewBox="0 0 41.659 41.659">
  <g id="linkedin" transform="translate(0.5 0.5)">
    <path id="Path_777" data-name="Path 777" d="M36.593,0H4.066A4.078,4.078,0,0,0,0,4.066V36.593a4.078,4.078,0,0,0,4.066,4.066H36.593a4.078,4.078,0,0,0,4.066-4.066V4.066A4.078,4.078,0,0,0,36.593,0ZM12.2,34.56H6.1v-18.3h6.1ZM9.148,12.808a3.659,3.659,0,1,1,3.659-3.659A3.644,3.644,0,0,1,9.148,12.808ZM34.56,34.56h-6.1V23.786a3.049,3.049,0,1,0-6.1,0V34.56h-6.1v-18.3h6.1V18.7a6.567,6.567,0,0,1,5.082-2.846,7.2,7.2,0,0,1,7.115,7.115Z" fill="#fff" stroke="#3fd8ff" stroke-width="1"/>
  </g>
</svg>
