<svg xmlns="http://www.w3.org/2000/svg" width="292.788" height="217.039" viewBox="0 0 292.788 217.039">
  <g id="Layer_x0020_1" transform="translate(0 -0.018)">
    <path id="Path_2103" data-name="Path 2103" d="M0,5397.317v-47.46H22.272q9.384,0,13.437,3.678t4.048,12.132v3.123q0,8.469-4.059,12.164t-13.426,3.7H12.73v12.665Zm12.73-23.24H21.6c2.089,0,3.47-.37,4.145-1.121s1.023-2.241,1.023-4.493v-2.742c0-1.882-.436-3.231-1.295-4.025s-2.318-1.2-4.385-1.2H12.73v13.578Zm46.948-1.306h7.116c2.122,0,3.569-.37,4.33-1.12s1.153-2.111,1.153-4.113v-1.817c0-2.012-.392-3.405-1.164-4.156s-2.219-1.132-4.319-1.132H59.678v12.338Zm-12.73,24.546v-47.46H66.087q10.968,0,15.037,2.884t4.08,10.118v3.819q0,4.815-2.329,7.54a10.308,10.308,0,0,1-6.876,3.3q4.815.8,7.007,3.188t2.2,6.822v9.792H72.212v-8.541c0-2.023-.392-3.416-1.164-4.167s-2.22-1.131-4.32-1.131h-7.05v13.839H46.948Zm46.861,0v-47.46h35.655v10.576H106.539v8.225H128.8v9.14H106.539v8.943h23.437v10.576H93.81Zm44.848,0v-47.46H162.8q10.07,0,14.112,4.211,4.048,4.195,4.048,14.721v9.6q0,10.526-4.048,14.721-4.047,4.211-14.112,4.211Zm12.73-10.575h9.466q4.374,0,5.745-1.567c.914-1.034,1.371-3.591,1.371-7.648v-7.812c0-4.058-.457-6.626-1.382-7.682s-2.84-1.6-5.734-1.6h-9.466Zm38.125,10.575v-47.46h12.861v47.46Zm61.234-18.279v1.371q0,9.287-4.08,13.394t-13.339,4.1h-4.309q-10.07,0-14.112-4.3t-4.047-15.113v-9.836q0-10.82,4.047-15.1t14.112-4.287h3.514q9.988,0,13.938,3.765t3.949,13.263v.925H237.756v-.86c0-2.165-.5-3.7-1.5-4.592s-2.742-1.338-5.222-1.338q-4.113,0-5.484,1.588t-1.371,7.682v7.8q0,6.07,1.371,7.659t5.484,1.578q3.851,0,5.32-1.458t1.469-5.157v-1.087Zm17.038,18.279v-36.884H255.577v-10.576h37.21v10.576H280.645v36.884Z" transform="translate(0 -5211.646)" fill="#fff"/>
    <path id="Path_2104" data-name="Path 2104" d="M64.313,7669.213v-2.861a2.356,2.356,0,0,0-.66-1.937,5.178,5.178,0,0,0-2.871-.522H54.753v7.793h6.029a5.076,5.076,0,0,0,2.852-.535A2.354,2.354,0,0,0,64.313,7669.213ZM52.61,7681.3v-19.469h8.2q3.281,0,4.517.974t1.237,3.468v2.941q0,2.571-1.223,3.553t-4.531.982H54.753v7.552Zm45.52-17.407H91.918v7.793H98.13a5.6,5.6,0,0,0,3.182-.6,2.619,2.619,0,0,0,.754-2.156v-2.276a2.67,2.67,0,0,0-.727-2.17A5.693,5.693,0,0,0,98.13,7663.893ZM89.775,7681.3v-19.469h8.788q3.281,0,4.517.974t1.237,3.468v2.941a4.071,4.071,0,0,1-.621,2.406,2.788,2.788,0,0,1-1.892,1.089,3.038,3.038,0,0,1,1.951,1.191,5.113,5.113,0,0,1,.562,2.723v4.678h-2.25v-4.013a4.389,4.389,0,0,0-.66-2.83,3.45,3.45,0,0,0-2.585-.736h-6.9v7.579H89.775Zm46.573-17.675h-1.205a13.07,13.07,0,0,0-2.9.223,3.649,3.649,0,0,0-1.464.746,2.643,2.643,0,0,0-.808,1.339,12.242,12.242,0,0,0-.237,2.893v5.516a12,12,0,0,0,.237,2.871,2.649,2.649,0,0,0,.808,1.326,3.661,3.661,0,0,0,1.464.746,13.07,13.07,0,0,0,2.9.223h1.205a13.276,13.276,0,0,0,2.915-.223,3.66,3.66,0,0,0,1.477-.746,2.575,2.575,0,0,0,.79-1.295,12.367,12.367,0,0,0,.227-2.9V7668.8a12.217,12.217,0,0,0-.237-2.9,2.645,2.645,0,0,0-.808-1.339,3.618,3.618,0,0,0-1.45-.727,13.518,13.518,0,0,0-2.915-.214Zm-8.837,4.642q0-3.735,1.544-5.2t5.477-1.474h2.455q3.976,0,5.5,1.451t1.521,5.226v6.6q0,3.749-1.548,5.213t-5.472,1.464h-2.455q-3.937,0-5.477-1.464t-1.544-5.213Zm37.548-4.374v-2.062h14.568v2.062h-6.213V7681.3h-2.169v-17.407h-6.186Zm44.48-.268h-1.205a13.07,13.07,0,0,0-2.9.223,3.649,3.649,0,0,0-1.464.746,2.643,2.643,0,0,0-.808,1.339,12.243,12.243,0,0,0-.237,2.893v5.516a12,12,0,0,0,.237,2.871,2.649,2.649,0,0,0,.808,1.326,3.661,3.661,0,0,0,1.464.746,13.07,13.07,0,0,0,2.9.223h1.205a13.275,13.275,0,0,0,2.915-.223,3.66,3.66,0,0,0,1.477-.746,2.575,2.575,0,0,0,.79-1.295,12.368,12.368,0,0,0,.227-2.9V7668.8a12.217,12.217,0,0,0-.237-2.9,2.645,2.645,0,0,0-.808-1.339,3.618,3.618,0,0,0-1.45-.727,13.518,13.518,0,0,0-2.915-.214Zm-8.837,4.642q0-3.735,1.544-5.2t5.477-1.474h2.455q3.976,0,5.5,1.451t1.521,5.226v6.6q0,3.749-1.548,5.213t-5.472,1.464h-2.455q-3.937,0-5.477-1.464t-1.544-5.213Zm39.584,0q0-3.743,1.433-5.208t5.056-1.464h2.277q3.595,0,5.048,1.263t1.45,4.289v.848h-2.223v-.535a3.969,3.969,0,0,0-.9-3.018q-.9-.81-3.535-.812h-1.5a11.008,11.008,0,0,0-2.571.214,3.09,3.09,0,0,0-1.339.727,2.693,2.693,0,0,0-.754,1.3,13.284,13.284,0,0,0-.214,2.932v5.543a13.3,13.3,0,0,0,.214,2.924,2.7,2.7,0,0,0,.754,1.3,3.1,3.1,0,0,0,1.3.727,10.917,10.917,0,0,0,2.606.214h1.5q2.7,0,3.589-.848c.589-.567.888-1.655.888-3.259,0-.245,0-.433-.008-.562s-.009-.254-.019-.366h2.21v1.281q0,3.247-1.406,4.517c-.937.848-2.638,1.272-5.092,1.272h-2.277q-3.628,0-5.056-1.469t-1.433-5.208v-6.6Zm46.76-4.637h-1.205a13.07,13.07,0,0,0-2.9.223,3.649,3.649,0,0,0-1.464.746,2.643,2.643,0,0,0-.808,1.339,12.243,12.243,0,0,0-.237,2.893v5.516a12,12,0,0,0,.237,2.871,2.649,2.649,0,0,0,.808,1.326,3.662,3.662,0,0,0,1.464.746,13.071,13.071,0,0,0,2.9.223h1.205a13.275,13.275,0,0,0,2.915-.223,3.66,3.66,0,0,0,1.477-.746,2.575,2.575,0,0,0,.79-1.295,12.368,12.368,0,0,0,.227-2.9V7668.8a12.217,12.217,0,0,0-.237-2.9,2.645,2.645,0,0,0-.808-1.339,3.618,3.618,0,0,0-1.45-.727,13.519,13.519,0,0,0-2.915-.214Zm-8.837,4.642q0-3.735,1.544-5.2t5.477-1.474h2.455q3.976,0,5.5,1.451t1.521,5.226v6.6q0,3.749-1.548,5.213t-5.472,1.464h-2.455q-3.937,0-5.477-1.464t-1.544-5.213v-6.6Zm40.2,13.033v-19.469h2.116v17.433h11.034v2.036H318.408Z" transform="translate(-51.257 -7464.483)" fill="#0cf"/>
    <path id="Path_2105" data-name="Path 2105" d="M5159.854,25.276c1.129,3.621,1.545,33.71-.027,36.779-1.156,1.8-1.512,1.682-6.043,1.658l-23.549-.046c-7.037-.006-9.113,2-9.605,7-.1,1.055-.139,13.555-.135,14.889a18.752,18.752,0,0,1,8.245,4.62c-.015-2.156-.011-15.616.055-17.763,8.964-.062,17.991.13,26.942,0,8.432-.125,13.358-4.6,13.5-13.048.14-8.268.424-23.686-.025-31.812a12.463,12.463,0,0,0-4.44-9.127c-2.943-2.366-6.532-2.709-11.021-2.718-.3-9.268-.416-13.651-6.583-15.124-3.01-.72-36.834-.751-39.641-.086-11.354,2.692,3.938,17.207,10.633,21.992,2.972,2.124,4.848,2.1,8.534,2.226,9.733.342,27.019-1.66,33.158.562ZM5112.77,104.9c.011-5.155-.486-44.661.242-49.069,9.431-.488,20.088-.109,29.64-.072a57.861,57.861,0,0,0,6.387-.185c1.928-.23,3.1-.73,3.794-1.8a7.1,7.1,0,0,0,.886-3.293c.148-1.737.108-13.819.057-16.877a9.2,9.2,0,0,1-4.559,1.232,8.8,8.8,0,0,1-4.223-1.045l.01,12.977c-28.066.352-40.845-5.147-40.959,11.9-.036,6.053-.1,43.313,0,49.356,0,.242.01.477.02.706a18.706,18.706,0,0,1,8.708-3.833Zm32.077-89.393-.011-7.774-30.139.025c1.859,2.281,6.643,7.563,9.731,7.944a189.546,189.546,0,0,0,20.418-.195Z" transform="translate(-4972.174 0)" fill="#fff" fill-rule="evenodd"/>
    <path id="Path_2106" data-name="Path 2106" d="M5022.577,3882.05a6.877,6.877,0,1,1-6.877,6.877A6.877,6.877,0,0,1,5022.577,3882.05Z" transform="translate(-4886.676 -3782.169)" fill="#f60" fill-rule="evenodd"/>
    <path id="Path_2107" data-name="Path 2107" d="M5677.107,3127.08a6.877,6.877,0,1,1-6.877,6.877A6.876,6.876,0,0,1,5677.107,3127.08Z" transform="translate(-5524.368 -3046.621)" fill="#0cf" fill-rule="evenodd"/>
    <path id="Path_2108" data-name="Path 2108" d="M6618.807,1111.2a6.877,6.877,0,1,1-6.877,6.877A6.877,6.877,0,0,1,6618.807,1111.2Z" transform="translate(-6441.843 -1082.597)" fill="#f60" fill-rule="evenodd"/>
  </g>
</svg>
