<svg xmlns="http://www.w3.org/2000/svg" width="42" height="42" viewBox="0 0 42 42">
  <g id="telegram" transform="translate(0.5 0.027)">
    <path id="Exclusion_1" data-name="Exclusion 1" d="M33.313,41H7.688a7.434,7.434,0,0,1-5.432-2.256A7.436,7.436,0,0,1,0,33.312V7.688A7.437,7.437,0,0,1,2.256,2.255,7.436,7.436,0,0,1,7.688,0H33.313a7.433,7.433,0,0,1,5.431,2.255A7.439,7.439,0,0,1,41,7.688V33.312A7.7,7.7,0,0,1,33.313,41ZM21.32,27.016h0l6.367,4.662A2.163,2.163,0,0,0,28.711,32c.64,0,1.071-.468,1.281-1.392l4.179-19.583a2,2,0,0,0-.224-1.7,1.114,1.114,0,0,0-.9-.4,1.825,1.825,0,0,0-.636.123l-24.565,9.4c-.831.323-1.3.744-1.285,1.155.012.349.377.66,1,.853l6.281,1.954,14.587-9.128a1.313,1.313,0,0,1,.684-.24c.151,0,.261.05.293.134s-.027.223-.179.357l-11.8,10.6-.458,6.443a1.608,1.608,0,0,0,1.28-.62l3.072-2.936Z" transform="translate(0 0.473)" fill="#fff" stroke="#0cf" stroke-width="1"/>
  </g>
</svg>
