<svg xmlns="http://www.w3.org/2000/svg" width="41.659" height="41.659" viewBox="0 0 41.659 41.659">
  <g id="twitter" transform="translate(0.5 0.5)">
    <path id="Path_638" data-name="Path 638" d="M38.426,2.237A7.342,7.342,0,0,0,33.039,0H7.627A7.344,7.344,0,0,0,2.24,2.237,7.344,7.344,0,0,0,0,7.624V33.036A7.344,7.344,0,0,0,2.24,38.422a7.344,7.344,0,0,0,5.387,2.237H33.039a7.637,7.637,0,0,0,7.623-7.624V7.624A7.344,7.344,0,0,0,38.426,2.237ZM31.107,15.644a7.019,7.019,0,0,1,.027.715A16.017,16.017,0,0,1,28.5,25.108a16.684,16.684,0,0,1-3.189,3.627,14.317,14.317,0,0,1-4.447,2.514,16.184,16.184,0,0,1-5.559.94A15.6,15.6,0,0,1,6.78,29.7,10.727,10.727,0,0,0,8.1,29.78,10.982,10.982,0,0,0,15.013,27.4,5.274,5.274,0,0,1,11.8,26.286a5.65,5.65,0,0,1-1.972-2.753,7.453,7.453,0,0,0,1.032.105,5.174,5.174,0,0,0,1.35-.211,5.561,5.561,0,0,1-3.256-1.919,5.286,5.286,0,0,1-1.324-3.534v-.053a6.564,6.564,0,0,0,2.647.688,5.243,5.243,0,0,1-2.409-4.632,5.505,5.505,0,0,1,.768-2.806,15.757,15.757,0,0,0,5.082,4.1,15.738,15.738,0,0,0,6.406,1.721,5.109,5.109,0,0,1-.132-1.271,5.559,5.559,0,0,1,5.559-5.559A5.284,5.284,0,0,1,29.6,11.912a11.058,11.058,0,0,0,3.547-1.35,5.405,5.405,0,0,1-2.462,3.1,11.784,11.784,0,0,0,3.2-.9A10.811,10.811,0,0,1,31.107,15.644Z" transform="translate(-0.003 0)" fill="#fff" stroke="#0cf" stroke-width="1"/>
  </g>
</svg>
